<svg width="1280" height="420" viewBox="0 0 1280 420" fill="none" xmlns="http://www.w3.org/2000/svg" role="img" aria-labelledby="title desc">
  <title id="title">SEO Evaluate</title>
  <desc id="desc">Banner del repositorio SEO Evaluate, una plataforma para auditar SEO desde una URL.</desc>
  <rect width="1280" height="420" rx="32" fill="#F7F9FB"/>
  <rect x="1" y="1" width="1278" height="418" rx="31" stroke="#DDE3EE" stroke-width="2"/>
  <path d="M0 296C155 256 246 304 381 270C545 229 591 124 754 121C923 118 987 225 1280 154V420H0V296Z" fill="#EAF0FF"/>
  <path d="M0 332C146 298 268 327 411 298C586 262 657 180 819 191C984 202 1078 282 1280 234V420H0V332Z" fill="#DCE7FF"/>
  <circle cx="1062" cy="115" r="132" fill="#0052FF" fill-opacity="0.08"/>
  <circle cx="1120" cy="156" r="84" fill="#0052FF" fill-opacity="0.12"/>
  <rect x="78" y="72" width="84" height="84" rx="20" fill="#0052FF"/>
  <text x="120" y="126" text-anchor="middle" font-family="JetBrains Mono, SFMono-Regular, Consolas, monospace" font-size="30" font-weight="800" fill="white">SE</text>
  <text x="78" y="212" font-family="Inter, ui-sans-serif, system-ui, -apple-system, BlinkMacSystemFont, 'Segoe UI', sans-serif" font-size="72" font-weight="800" letter-spacing="-2" fill="#111827">SEO Evaluate</text>
  <text x="82" y="265" font-family="Inter, ui-sans-serif, system-ui, -apple-system, BlinkMacSystemFont, 'Segoe UI', sans-serif" font-size="26" font-weight="500" fill="#465366">Auditoría SEO accionable desde una URL</text>
  <g transform="translate(760 82)">
    <rect width="402" height="258" rx="24" fill="white"/>
    <rect x="0.75" y="0.75" width="400.5" height="256.5" rx="23.25" stroke="#D9E1EE" stroke-width="1.5"/>
    <rect x="28" y="28" width="178" height="16" rx="8" fill="#D9E1EE"/>
    <rect x="28" y="62" width="298" height="42" rx="12" fill="#F2F5F9"/>
    <rect x="340" y="62" width="34" height="42" rx="12" fill="#0052FF"/>
    <circle cx="103" cy="166" r="52" fill="#F2F5F9"/>
    <path d="M103 114a52 52 0 1 1-44.7 25.5" stroke="#0052FF" stroke-width="15" stroke-linecap="round"/>
    <text x="103" y="174" text-anchor="middle" font-family="Inter, ui-sans-serif, system-ui, sans-serif" font-size="28" font-weight="800" fill="#111827">86</text>
    <rect x="188" y="128" width="156" height="14" rx="7" fill="#D9E1EE"/>
    <rect x="188" y="160" width="112" height="14" rx="7" fill="#22C55E"/>
    <rect x="188" y="192" width="132" height="14" rx="7" fill="#F59E0B"/>
    <rect x="188" y="224" width="94" height="14" rx="7" fill="#EF4444"/>
  </g>
  <g font-family="JetBrains Mono, SFMono-Regular, Consolas, monospace" font-size="16" font-weight="600">
    <rect x="82" y="306" width="106" height="36" rx="18" fill="#FFFFFF"/>
    <rect x="82.5" y="306.5" width="105" height="35" rx="17.5" stroke="#D9E1EE"/>
    <text x="135" y="329" text-anchor="middle" fill="#0052FF">Next.js</text>
    <rect x="202" y="306" width="130" height="36" rx="18" fill="#FFFFFF"/>
    <rect x="202.5" y="306.5" width="129" height="35" rx="17.5" stroke="#D9E1EE"/>
    <text x="267" y="329" text-anchor="middle" fill="#0052FF">TypeScript</text>
    <rect x="346" y="306" width="112" height="36" rx="18" fill="#FFFFFF"/>
    <rect x="346.5" y="306.5" width="111" height="35" rx="17.5" stroke="#D9E1EE"/>
    <text x="402" y="329" text-anchor="middle" fill="#0052FF">Tailwind</text>
  </g>
</svg>
